<svg xmlns="http://www.w3.org/2000/svg" width="12" height="13">
    <path fill="#151515" fill-rule="evenodd" d="M9.759 12.001c.078 0 .156-.016.234-.047.078-.032.176-.067.293-.106.109-.109.184-.236.223-.381.039-.144.039-.291 0-.439L9.161 7.055l2.543-1.957c.117-.07.193-.187.229-.351.035-.164.037-.321.006-.469-.04-.148-.126-.274-.258-.375-.133-.102-.274-.153-.422-.153H8.036L6.688.446c-.039-.149-.125-.26-.257-.334C6.298.038 6.157 0 6.009 0c-.149 0-.291.038-.428.112-.137.074-.244.185-.322.334L3.981 3.75H.759c-.149 0-.289.051-.422.153-.133.101-.219.227-.258.375-.07.148-.078.295-.023.439.054.145.14.272.257.381l2.625 1.957-1.359 3.973c-.07.148-.078.295-.023.439.054.145.14.272.257.381.11.117.237.178.381.182.145.004.291-.029.44-.1l3.375-2.027 3.375 2.027c.039.031.092.051.158.059.066.007.139.012.217.012zm-3.75-3.75c-.078 0-.151.004-.217.011-.066.008-.119.028-.158.059L3.606 9.528l.832-2.555c.071-.148.079-.295.024-.439-.055-.145-.141-.272-.258-.381l-1.195-.902h1.5c.148 0 .289-.037.422-.112.132-.074.218-.185.257-.334l.821-2.027.82 2.027c.039.149.125.26.258.334.133.075.273.112.422.112h1.5l-1.196.902c-.117.07-.193.187-.228.352-.035.164-.037.32-.006.468l.832 2.555-2.027-1.207c-.039-.031-.092-.051-.158-.059-.067-.007-.139-.011-.217-.011z"/>
</svg>
